# xmcd
#
# Track frame offsets: 
#        183
#        10958
#        21763
#        42075
#        50658
#        63243
#        76290
#        86868
#        97503
#        109438
#        127383
#        142043
#        158130
#        172238
#        188505
#        201385
#        216310
#        226878
#        243940
#        257200
#
# Disc length: 3543 seconds
#
# Revision: 6
# Processed by: cddbd v1.5.2PL0 Copyright (c) Steve Scherf et al.
# Submitted via: ExactAudioCopy v0.99pb1
#
DISCID=1e0dd514
DTITLE=The Animals - The Singles Plus
DYEAR=1987
DGENRE=Rock
TTITLE0=Baby Let Me Take You Home
TTITLE1=Gonna Send You Back To Walker
TTITLE2=House Of The Rising Sun
TTITLE3=Talkin' 'bout You
TTITLE4=I'm Crying
TTITLE5=Take It Easy
TTITLE6=Don't Let Me Be Misunderstood
TTITLE7=Club A Gogo
TTITLE8=Bring It On Home To Me
TTITLE9=For Miss Caulker
TTITLE10=We've Gotta Get Out Of This Place
TTITLE11=I Can't Believe It
TTITLE12=It's My Life
TTITLE13=I'm Gonna Change The World
TTITLE14=Bury My Body
TTITLE15=Dimples
TTITLE16=She Said Yeah
TTITLE17=The Right Time
TTITLE18=Bright Lights, Big City
TTITLE19=Let The Good Times Roll
EXTD=
EXTT0=1964
EXTT1=1964
EXTT2=1964
EXTT3=1964
EXTT4=1964
EXTT5=1964
EXTT6=1965
EXTT7=1965
EXTT8=1965
EXTT9=1965
EXTT10=1965
EXTT11=1965
EXTT12=1965
EXTT13=1965
EXTT14=1964
EXTT15=1964
EXTT16=1964
EXTT17=1964
EXTT18=1965
EXTT19=1965
PLAYORDER=
